<svg width="34" height="34" viewBox="0 0 34 34" fill="none" xmlns="http://www.w3.org/2000/svg">
<path d="M28.4208 26.4886C29.9467 24.6527 31.008 22.4763 31.5148 20.1435C32.0217 17.8107 31.9593 15.3902 31.3328 13.0866C30.7063 10.7831 29.5343 8.66431 27.9158 6.90954C26.2973 5.15477 24.2799 3.81562 22.0344 3.00539C19.7889 2.19516 17.3813 1.93768 15.0152 2.25473C12.6491 2.57178 10.3942 3.45403 8.44126 4.82686C6.48828 6.19968 4.89467 8.02269 3.79524 10.1417C2.69581 12.2606 2.12291 14.6132 2.12501 17.0004C2.12581 20.4708 3.34873 23.83 5.57919 26.4886L5.55794 26.5066C5.63232 26.5959 5.71732 26.6724 5.79382 26.7606C5.88944 26.87 5.99251 26.9731 6.09132 27.0793C6.38882 27.4023 6.69482 27.7126 7.01569 28.0037C7.11344 28.0929 7.21438 28.1758 7.31319 28.2608C7.65319 28.5541 8.00276 28.8324 8.36507 29.0917C8.41182 29.1236 8.45432 29.165 8.50107 29.1979V29.1852C10.9896 30.9364 13.9582 31.8762 17.0011 31.8762C20.044 31.8762 23.0126 30.9364 25.5011 29.1852V29.1979C25.5478 29.165 25.5893 29.1236 25.6371 29.0917C25.9983 28.8314 26.3489 28.5541 26.6889 28.2608C26.7878 28.1758 26.8887 28.0919 26.9864 28.0037C27.3073 27.7115 27.6133 27.4023 27.9108 27.0793C28.0096 26.9731 28.1116 26.87 28.2083 26.7606C28.2838 26.6724 28.3698 26.5959 28.4442 26.5056L28.4208 26.4886ZM17 8.50044C17.9456 8.50044 18.8701 8.78086 19.6563 9.30623C20.4426 9.8316 21.0554 10.5783 21.4173 11.452C21.7792 12.3256 21.8739 13.287 21.6894 14.2145C21.5049 15.1419 21.0495 15.9939 20.3809 16.6625C19.7122 17.3312 18.8603 17.7866 17.9328 17.9711C17.0053 18.1556 16.044 18.0609 15.1703 17.699C14.2966 17.3371 13.5499 16.7243 13.0245 15.938C12.4992 15.1517 12.2188 14.2273 12.2188 13.2817C12.2188 12.0136 12.7225 10.7975 13.6192 9.90084C14.5158 9.00418 15.7319 8.50044 17 8.50044ZM8.50744 26.4886C8.52587 25.0935 9.09282 23.7617 10.0856 22.7814C11.0784 21.8012 12.4173 21.2512 13.8125 21.2504H20.1875C21.5827 21.2512 22.9216 21.8012 23.9144 22.7814C24.9072 23.7617 25.4741 25.0935 25.4926 26.4886C23.1623 28.5884 20.1368 29.7505 17 29.7505C13.8632 29.7505 10.8377 28.5884 8.50744 26.4886Z" fill="black"/>
</svg>
