<svg width="25" height="24" viewBox="0 0 25 24" fill="none" xmlns="http://www.w3.org/2000/svg">
<path d="M12.1787 10.8001C12.5743 10.8001 12.961 10.6828 13.2899 10.463C13.6187 10.2433 13.8751 9.93091 14.0265 9.56545C14.1778 9.2 14.2175 8.79787 14.1403 8.40991C14.0631 8.02195 13.8726 7.66558 13.5929 7.38587C13.3132 7.10617 12.9569 6.91569 12.5689 6.83852C12.1809 6.76135 11.7788 6.80095 11.4133 6.95233C11.0479 7.1037 10.7355 7.36005 10.5158 7.68895C10.296 8.01785 10.1787 8.40453 10.1787 8.80009C10.1787 9.33052 10.3894 9.83923 10.7645 10.2143C11.1396 10.5894 11.6483 10.8001 12.1787 10.8001ZM11.4687 17.7101C11.5617 17.8038 11.6723 17.8782 11.7941 17.929C11.916 17.9797 12.0467 18.0059 12.1787 18.0059C12.3107 18.0059 12.4414 17.9797 12.5633 17.929C12.6851 17.8782 12.7957 17.8038 12.8887 17.7101L16.9787 13.6101C17.9287 12.6606 18.5757 11.4508 18.838 10.1335C19.1003 8.81632 18.966 7.45089 18.4522 6.20998C17.9384 4.96906 17.0681 3.9084 15.9514 3.16215C14.8347 2.41589 13.5218 2.01758 12.1787 2.01758C10.8356 2.01758 9.52271 2.41589 8.40602 3.16215C7.28933 3.9084 6.41904 4.96906 5.90523 6.20998C5.39141 7.45089 5.25716 8.81632 5.51944 10.1335C5.78172 11.4508 6.42876 12.6606 7.37871 13.6101L11.4687 17.7101ZM7.40871 8.34009C7.47704 7.62711 7.70373 6.93838 8.07224 6.3242C8.44074 5.71002 8.94176 5.1859 9.53871 4.79009C10.3229 4.27519 11.2406 4.00085 12.1787 4.00085C13.1168 4.00085 14.0345 4.27519 14.8187 4.79009C15.4117 5.18454 15.9099 5.70549 16.2774 6.31547C16.645 6.92546 16.8729 7.60932 16.9446 8.31787C17.0163 9.02643 16.9301 9.74208 16.6922 10.4133C16.4543 11.0846 16.0706 11.6948 15.5687 12.2001L12.1787 15.5901L8.78871 12.2001C8.28623 11.6997 7.90164 11.0936 7.66292 10.4259C7.42419 9.75816 7.33735 9.04561 7.40871 8.34009ZM19.1787 20.0001H5.17871C4.91349 20.0001 4.65914 20.1054 4.4716 20.293C4.28407 20.4805 4.17871 20.7349 4.17871 21.0001C4.17871 21.2653 4.28407 21.5197 4.4716 21.7072C4.65914 21.8947 4.91349 22.0001 5.17871 22.0001H19.1787C19.4439 22.0001 19.6983 21.8947 19.8858 21.7072C20.0734 21.5197 20.1787 21.2653 20.1787 21.0001C20.1787 20.7349 20.0734 20.4805 19.8858 20.293C19.6983 20.1054 19.4439 20.0001 19.1787 20.0001Z" fill="#207D92"/>
</svg>
