<svg width="33" height="32" viewBox="0 0 33 32" fill="none" xmlns="http://www.w3.org/2000/svg">
<path d="M11.106 19.6197C11.106 18.938 10.6368 18.4245 10.0149 18.4245H1.85772C1.23433 18.4245 0.765625 18.938 0.765625 19.6197C0.765625 20.2833 1.24052 20.785 1.87216 20.785H4.70552V29.9698C4.70552 30.6396 5.21392 31.1032 5.94147 31.1032C6.67159 31.1032 7.18206 30.6396 7.18206 29.9698V20.785H10.0154C10.6264 20.785 11.106 20.273 11.106 19.6197ZM16.0101 18.2017C12.541 18.2017 10.297 20.7577 10.297 24.7115C10.297 28.6844 12.5389 31.2517 16.0101 31.2517C19.4622 31.2517 21.6923 28.6906 21.6923 24.7285C21.6923 20.7628 19.4642 18.2017 16.0101 18.2017ZM16.0101 28.9071C14.043 28.9071 12.8215 27.3066 12.8215 24.7285C12.8215 22.1401 14.043 20.5303 16.0101 20.5303C17.9591 20.5303 19.1693 22.106 19.1693 24.6378C19.1709 27.351 18.0184 28.9071 16.0101 28.9071ZM28.0499 18.4235H24.7623C23.4119 18.4235 22.7261 19.1386 22.7261 20.5504V29.9384C22.7261 30.6355 23.2185 31.1027 23.9507 31.1027C24.6695 31.1027 25.1732 30.6304 25.1732 29.9539V26.2898H27.9927C30.6497 26.2898 32.2368 24.7821 32.2368 22.2535C32.2368 19.8569 30.6714 18.4235 28.0499 18.4235ZM29.7298 22.2839C29.7298 23.4333 29.1518 23.9922 27.9602 23.9922H25.1727V20.7376H27.9602C29.1518 20.7381 29.7298 21.2434 29.7298 22.2839ZM19.5034 15.2328V9.91873H20.992C21.8671 9.91873 22.5869 9.08084 22.6725 8.0068L15.973 0.300781L9.31778 8.0037C9.40441 9.07775 10.1232 9.91822 10.9992 9.91822H12.4878V15.2323L19.5034 15.2328Z" fill="white"/>
</svg>
