<svg width="17" height="17" viewBox="0 0 17 17" fill="none" xmlns="http://www.w3.org/2000/svg">
<path d="M15.7601 12.2798L14.0407 10.519C13.6709 10.1674 13.2044 9.93449 12.7011 9.85012C12.1979 9.76576 11.6809 9.83381 11.2167 10.0455L10.4691 9.29799C11.35 8.12096 11.7523 6.65392 11.595 5.19219C11.4378 3.73046 10.7326 2.38259 9.62145 1.4199C8.51031 0.457215 7.07574 -0.0488027 5.60652 0.00371413C4.13729 0.056231 2.74251 0.663382 1.70295 1.70295C0.663383 2.74251 0.056231 4.13729 0.00371413 5.60652C-0.0488027 7.07574 0.457215 8.51032 1.4199 9.62145C2.38259 10.7326 3.73046 11.4378 5.19219 11.5951C6.65392 11.7523 8.12096 11.35 9.29799 10.4691L10.0372 11.2084C9.80058 11.6732 9.71576 12.2006 9.79474 12.7162C9.87372 13.2318 10.1125 13.7096 10.4774 14.0822L12.2383 15.8431C12.7055 16.3098 13.3389 16.5719 13.9992 16.5719C14.6595 16.5719 15.2928 16.3098 15.7601 15.8431C15.9974 15.6111 16.186 15.3339 16.3147 15.028C16.4435 14.722 16.5098 14.3934 16.5098 14.0615C16.5098 13.7295 16.4435 13.401 16.3147 13.095C16.186 12.7891 15.9974 12.5119 15.7601 12.2798ZM8.71657 8.7581C8.13534 9.33785 7.39533 9.73235 6.59001 9.89174C5.78469 10.0511 4.9502 9.96828 4.19195 9.65364C3.4337 9.339 2.78571 8.80669 2.32984 8.12396C1.87396 7.44123 1.63066 6.63871 1.63066 5.81777C1.63066 4.99683 1.87396 4.1943 2.32984 3.51157C2.78571 2.82884 3.4337 2.29654 4.19195 1.9819C4.9502 1.66726 5.78469 1.5844 6.59001 1.7438C7.39533 1.90319 8.13534 2.29768 8.71657 2.87744C9.10332 3.26322 9.41017 3.72151 9.61953 4.22606C9.8289 4.73061 9.93667 5.2715 9.93667 5.81777C9.93667 6.36403 9.8289 6.90493 9.61953 7.40948C9.41017 7.91403 9.10332 8.37232 8.71657 8.7581ZM14.5889 14.6304C14.5117 14.7083 14.4198 14.7701 14.3186 14.8123C14.2174 14.8544 14.1088 14.8761 13.9992 14.8761C13.8895 14.8761 13.781 14.8544 13.6798 14.8123C13.5785 14.7701 13.4867 14.7083 13.4095 14.6304L11.6486 12.8696C11.5707 12.7924 11.5089 12.7005 11.4668 12.5993C11.4246 12.4981 11.4029 12.3895 11.4029 12.2798C11.4029 12.1702 11.4246 12.0616 11.4668 11.9604C11.5089 11.8592 11.5707 11.7673 11.6486 11.6901C11.7258 11.6123 11.8177 11.5505 11.9189 11.5083C12.0201 11.4661 12.1287 11.4444 12.2383 11.4444C12.348 11.4444 12.4565 11.4661 12.5577 11.5083C12.659 11.5505 12.7508 11.6123 12.828 11.6901L14.5889 13.451C14.6668 13.5282 14.7286 13.6201 14.7707 13.7213C14.8129 13.8225 14.8346 13.9311 14.8346 14.0407C14.8346 14.1504 14.8129 14.2589 14.7707 14.3601C14.7286 14.4614 14.6668 14.5532 14.5889 14.6304Z" fill="white"/>
</svg>
