<svg width="66" height="66" viewBox="0 0 66 66" fill="none" xmlns="http://www.w3.org/2000/svg">
<path d="M28.8611 39.8778V60.4973H20.6248V39.8778H28.8611ZM47.4511 35.7528H37.8233C37.2763 35.7528 36.7517 35.97 36.3649 36.3568C35.9781 36.7436 35.7608 37.2682 35.7608 37.8153V47.4458C35.7608 48.5843 36.6821 49.5083 37.8233 49.5083H47.4511C47.9981 49.5083 48.5227 49.291 48.9095 48.9042C49.2963 48.5174 49.5136 47.9928 49.5136 47.4458V37.8153C49.5136 37.2682 49.2963 36.7436 48.9095 36.3568C48.5227 35.97 47.9981 35.7528 47.4511 35.7528ZM45.3886 39.8778V45.3833H39.8831V39.8778H45.3858H45.3886ZM22.4536 19.2555H9.62756V22.4593C9.62756 25.7043 12.0421 28.391 15.1743 28.8145L15.6033 28.8585L16.0433 28.8722C17.6687 28.8725 19.2335 28.2557 20.4214 27.1464C21.6093 26.0371 22.3317 24.5181 22.4426 22.8965L22.4591 22.4565V19.2583L22.4536 19.2555ZM39.4073 19.2555H26.5813V22.4593C26.5813 25.7043 28.9958 28.391 32.1281 28.8145L32.5571 28.8585L32.9971 28.8722C34.6224 28.8725 36.1872 28.2557 37.3752 27.1464C38.5631 26.0371 39.2855 24.5181 39.3963 22.8965L39.4128 22.4565V19.2583L39.4073 19.2555ZM56.3666 19.2555H43.5378L43.5406 22.4593C43.5406 25.7043 45.9551 28.391 49.0846 28.8145L49.5163 28.8585L49.9563 28.8722C51.5815 28.8719 53.1459 28.2548 54.3337 27.1456C55.5215 26.0364 56.2441 24.5178 56.3556 22.8965L56.3693 22.4565V19.2583L56.3666 19.2555ZM24.9176 9.625H17.3963L12.2923 15.1305H23.2291L24.9176 9.625ZM36.7646 9.625H29.2351L27.5411 15.1305H38.4586L36.7646 9.625ZM48.6006 9.625H41.0848L42.7761 15.1305H53.7101L48.6006 9.625ZM6.05531 15.7905L14.9873 6.16C15.3102 5.81155 15.7434 5.58522 16.2138 5.51925L16.4998 5.5H49.4998C49.9758 5.49954 50.4373 5.66374 50.8061 5.96475L51.0123 6.15725L60.0131 15.8648L60.0956 15.9693C60.3761 16.3433 60.5026 16.7668 60.5026 17.1793L60.4971 22.4593C60.4971 25.1928 59.4576 27.6842 57.7471 29.5542V58.4375C57.747 58.9359 57.5665 59.4174 57.2389 59.7931C56.9114 60.1687 56.4588 60.413 55.9651 60.4808L55.6846 60.5L32.9888 60.4973V37.8153C32.9888 37.2682 32.7715 36.7436 32.3847 36.3568C31.9979 35.97 31.4733 35.7528 30.9263 35.7528H18.5623C18.0153 35.7528 17.4907 35.97 17.1039 36.3568C16.7171 36.7436 16.4998 37.2682 16.4998 37.8153V60.4973L10.3178 60.5C9.81893 60.5006 9.33673 60.3204 8.96053 59.9928C8.58434 59.6651 8.33965 59.2122 8.27181 58.718L8.25531 58.4375L8.24981 29.557C6.60366 27.756 5.63616 25.4379 5.51356 23.001L5.49981 22.4593V17.2975C5.47591 16.9057 5.56772 16.5155 5.76381 16.1755L5.90131 15.9665L6.05256 15.7878L6.05531 15.7905Z" fill="white"/>
</svg>
