<svg width="20" height="21" viewBox="0 0 20 21" fill="none" xmlns="http://www.w3.org/2000/svg">
<path d="M7.08317 16.1066C6.83594 16.1066 6.59427 16.1799 6.38871 16.3172C6.18315 16.4546 6.02293 16.6498 5.92832 16.8782C5.83371 17.1066 5.80896 17.3579 5.85719 17.6004C5.90542 17.8429 6.02447 18.0656 6.19929 18.2404C6.3741 18.4153 6.59683 18.5343 6.83931 18.5825C7.08178 18.6308 7.33312 18.606 7.56152 18.5114C7.78993 18.4168 7.98516 18.2566 8.12251 18.051C8.25986 17.8455 8.33317 17.6038 8.33317 17.3566C8.33317 17.025 8.20147 16.7071 7.96705 16.4727C7.73263 16.2383 7.41469 16.1066 7.08317 16.1066ZM15.8332 13.6066H5.83317C5.61216 13.6066 5.4002 13.5188 5.24391 13.3625C5.08763 13.2062 4.99984 12.9942 4.99984 12.7732C4.99984 12.5522 5.08763 12.3402 5.24391 12.184C5.4002 12.0277 5.61216 11.9399 5.83317 11.9399H12.9092C13.452 11.9381 13.9797 11.7605 14.4131 11.4336C14.8465 11.1067 15.1623 10.6482 15.3132 10.1267L16.6344 5.50231C16.6698 5.37828 16.676 5.24773 16.6524 5.12091C16.6288 4.9941 16.5761 4.87449 16.4984 4.7715C16.4208 4.66851 16.3203 4.58496 16.2048 4.52742C16.0894 4.46987 15.9622 4.43991 15.8332 4.43989H5.61573C5.44322 3.95436 5.12521 3.53382 4.70502 3.23557C4.28484 2.93732 3.78293 2.77587 3.26766 2.77322H2.49984C2.27882 2.77322 2.06686 2.86102 1.91058 3.0173C1.7543 3.17358 1.6665 3.38554 1.6665 3.60656C1.6665 3.82757 1.7543 4.03953 1.91058 4.19581C2.06686 4.35209 2.27882 4.43989 2.49984 4.43989H3.26766C3.44856 4.44052 3.62439 4.49974 3.76883 4.60867C3.91326 4.7176 4.01852 4.87038 4.06885 5.04414L4.19845 5.49809L4.19865 5.50231L5.56584 10.2875C4.92964 10.3559 4.3439 10.6657 3.92922 11.153C3.51455 11.6403 3.30252 12.2681 3.33678 12.907C3.37104 13.546 3.64898 14.1475 4.11339 14.5877C4.57779 15.0278 5.1933 15.2732 5.83317 15.2732H15.8332C16.0542 15.2732 16.2661 15.1854 16.4224 15.0291C16.5787 14.8729 16.6665 14.6609 16.6665 14.4399C16.6665 14.2189 16.5787 14.0069 16.4224 13.8506C16.2661 13.6944 16.0542 13.6066 15.8332 13.6066ZM14.7284 6.10656L13.7108 9.66857C13.6605 9.84247 13.5552 9.99539 13.4107 10.1044C13.2662 10.2134 13.0902 10.2727 12.9092 10.2732H7.29516L7.08271 9.52972L6.10519 6.10656H14.7284ZM13.7498 16.1066C13.5026 16.1066 13.2609 16.1799 13.0554 16.3172C12.8498 16.4546 12.6896 16.6498 12.595 16.8782C12.5004 17.1066 12.4756 17.3579 12.5239 17.6004C12.5721 17.8429 12.6911 18.0656 12.866 18.2404C13.0408 18.4153 13.2635 18.5343 13.506 18.5825C13.7485 18.6308 13.9998 18.606 14.2282 18.5114C14.4566 18.4168 14.6518 18.2566 14.7892 18.051C14.9265 17.8455 14.9998 17.6038 14.9998 17.3566C14.9998 17.025 14.8681 16.7071 14.6337 16.4727C14.3993 16.2383 14.0814 16.1066 13.7498 16.1066Z" fill="white"/>
</svg>
