<svg width="20" height="21" viewBox="0 0 20 21" fill="none" xmlns="http://www.w3.org/2000/svg">
<path d="M10.0927 1.93991C8.52012 1.94298 6.98234 2.416 5.66668 3.30136C4.35101 4.18672 3.31424 5.44619 2.68266 6.92639C2.05107 8.40658 1.85193 10.0436 2.10949 11.638C2.36704 13.2325 3.07018 14.7155 4.13325 15.9066C4.89251 16.7525 5.81401 17.4275 6.83968 17.8892C7.86536 18.351 8.97296 18.5894 10.0927 18.5894C11.2125 18.5894 12.3201 18.351 13.3457 17.8892C14.3714 17.4275 15.2929 16.7525 16.0522 15.9066C17.1152 14.7155 17.8184 13.2325 18.0759 11.638C18.3335 10.0436 18.1343 8.40658 17.5028 6.92639C16.8712 5.44619 15.8344 4.18672 14.5187 3.30136C13.2031 2.416 11.6653 1.94298 10.0927 1.93991ZM10.0927 16.9399C8.41308 16.9373 6.79994 16.2651 5.59271 15.0649C5.95923 14.1479 6.58274 13.3635 7.38399 12.8115C8.18525 12.2595 9.12809 11.9647 10.0927 11.9647C11.0573 11.9647 12.0002 12.2595 12.8014 12.8115C13.6027 13.3635 14.2262 14.1479 14.5927 15.0649C13.3855 16.2651 11.7723 16.9373 10.0927 16.9399ZM8.47109 8.60658C8.47109 8.27694 8.56619 7.95471 8.74438 7.68063C8.92256 7.40655 9.17583 7.19292 9.47214 7.06678C9.76845 6.94063 10.0945 6.90763 10.4091 6.97194C10.7236 7.03624 11.0126 7.19498 11.2394 7.42807C11.4662 7.66115 11.6206 7.95813 11.6832 8.28143C11.7457 8.60473 11.7136 8.93984 11.5909 9.24438C11.4682 9.54893 11.2603 9.80922 10.9936 9.99236C10.727 10.1755 10.4134 10.2732 10.0927 10.2732C9.66263 10.2732 9.25016 10.0976 8.94605 9.78509C8.64194 9.47253 8.47109 9.04861 8.47109 8.60658ZM15.6954 13.6066C14.971 12.333 13.856 11.3424 12.5251 10.7899C12.938 10.3088 13.207 9.71546 13.2998 9.08111C13.3927 8.44676 13.3055 7.79834 13.0487 7.21366C12.7919 6.62898 12.3764 6.13288 11.8521 5.78488C11.3278 5.43689 10.7169 5.25179 10.0927 5.25179C9.46855 5.25179 8.85766 5.43689 8.33332 5.78488C7.80899 6.13288 7.39349 6.62898 7.13669 7.21366C6.87989 7.79834 6.7927 8.44676 6.88557 9.08111C6.97844 9.71546 7.24744 10.3088 7.66028 10.7899C6.32941 11.3424 5.21444 12.333 4.49001 13.6066C3.91266 12.5958 3.60762 11.4453 3.60622 10.2732C3.60622 8.50513 4.28962 6.80944 5.50607 5.5592C6.72252 4.30896 8.37238 3.60658 10.0927 3.60658C11.813 3.60658 13.4629 4.30896 14.6793 5.5592C15.8958 6.80944 16.5792 8.50513 16.5792 10.2732C16.5778 11.4453 16.2728 12.5958 15.6954 13.6066Z" fill="white"/>
</svg>
