<svg width="24" height="24" viewBox="0 0 24 24" fill="none" xmlns="http://www.w3.org/2000/svg">
<circle cx="12" cy="12" r="12" fill="#207D92"/>
<path d="M6.34293 18.6571C6.71016 19.0249 7.14644 19.3164 7.62671 19.5151C8.10697 19.7137 8.62175 19.8155 9.14147 19.8145C9.6613 19.8154 10.1762 19.7137 10.6566 19.515C11.137 19.3164 11.5734 19.0249 11.9408 18.6571L14.1796 16.4175L13.0602 15.2981L10.8214 17.5377C10.3753 17.9818 9.77137 18.2312 9.14186 18.2312C8.51235 18.2312 7.90847 17.9818 7.46234 17.5377C7.01782 17.0918 6.76821 16.4878 6.76821 15.8582C6.76821 15.2285 7.01782 14.6246 7.46234 14.1787L9.70197 11.9398L8.58255 10.8204L6.34293 13.0592C5.60177 13.8022 5.18555 14.8088 5.18555 15.8582C5.18555 16.9076 5.60177 17.9142 6.34293 18.6571ZM18.6581 11.9398C19.3989 11.1967 19.8148 10.1902 19.8148 9.14089C19.8148 8.0916 19.3989 7.0851 18.6581 6.34195C17.9151 5.6008 16.9086 5.18457 15.8592 5.18457C14.8097 5.18457 13.8032 5.6008 13.0602 6.34195L10.8214 8.58157L11.9408 9.70099L14.1796 7.46137C14.6258 7.01723 15.2296 6.76789 15.8592 6.76789C16.4887 6.76789 17.0925 7.01723 17.5387 7.46137C17.9832 7.90729 18.2328 8.51125 18.2328 9.14089C18.2328 9.77052 17.9832 10.3745 17.5387 10.8204L15.2991 13.0592L16.4185 14.1787L18.6581 11.9398Z" fill="white"/>
<path d="M9.70029 16.4186L8.58008 15.2991L15.299 8.58105L16.4184 9.70126L9.70029 16.4186Z" fill="white"/>
</svg>
