<svg width="35" height="34" viewBox="0 0 35 34" fill="none" xmlns="http://www.w3.org/2000/svg">
<path d="M20.3335 7.08398V5.66732C20.3335 4.10898 19.0585 2.83398 17.5002 2.83398H11.8335C10.2752 2.83398 9.00016 4.10898 9.00016 5.66732V7.08398C5.8835 7.08398 3.3335 9.63398 3.3335 12.7507V28.334C3.3335 29.8923 4.6085 31.1673 6.16683 31.1673H22.0335L18.6335 27.7673C17.7835 27.059 17.3585 25.9257 17.3585 24.934V22.6673H10.4168V25.5007H9.00016V22.6673H6.16683V21.2507H17.5002V20.9673C17.5002 18.8423 19.2002 17.0007 21.4668 17.0007H26.0002V12.7507C26.0002 9.63398 23.4502 7.08398 20.3335 7.08398ZM14.6668 18.4173L11.8335 15.584L14.6668 12.7507L17.5002 15.584L14.6668 18.4173ZM17.5002 7.08398H11.8335V5.66732H17.5002V7.08398ZM31.3835 25.2173L26.2835 20.1173C26.0002 19.9757 25.7168 19.834 25.4335 19.834H21.4668C20.9002 19.834 20.3335 20.4007 20.3335 20.9673V24.934C20.3335 25.2173 20.4752 25.5007 20.6168 25.784L25.7168 30.884C25.8585 31.0257 26.1418 31.1673 26.5668 31.1673C26.9918 31.1673 27.1335 31.0257 27.4168 30.884L31.3835 26.9173C31.5252 26.7757 31.6668 26.4923 31.6668 26.0673C31.6668 25.784 31.5252 25.5006 31.3835 25.2173ZM22.8835 23.3757C22.3168 23.3757 21.8918 22.9507 21.7502 22.384C21.7502 21.8173 22.1752 21.3923 22.7418 21.3923C23.3085 21.3923 23.7335 21.8173 23.8752 22.384C23.8752 22.9507 23.4502 23.3757 22.8835 23.3757Z" fill="black"/>
</svg>
