<svg width="25" height="23" viewBox="0 0 25 23" fill="none" xmlns="http://www.w3.org/2000/svg">
<path d="M19.3306 9.20078C19.3306 11.0308 18.5777 12.7858 17.2375 14.0798C15.8973 15.3738 14.0796 16.1008 12.1843 16.1008C10.289 16.1008 8.47136 15.3738 7.13118 14.0798C5.79099 12.7858 5.03809 11.0308 5.03809 9.20078C5.03809 7.37079 5.79099 5.61575 7.13118 4.32174C8.47136 3.02774 10.289 2.30078 12.1843 2.30078C14.0796 2.30078 15.8973 3.02774 17.2375 4.32174C18.5777 5.61575 19.3306 7.37079 19.3306 9.20078ZM12.0021 5.86808L11.1481 7.65403C11.1332 7.68514 11.1102 7.71203 11.0814 7.73215C11.0527 7.75228 11.019 7.76498 10.9838 7.76903L8.96138 8.00133C8.92183 8.00576 8.88441 8.02104 8.85356 8.04536C8.82272 8.06967 8.79973 8.10202 8.78733 8.13855C8.77492 8.17509 8.77362 8.21429 8.78357 8.25152C8.79352 8.28875 8.8143 8.32245 8.84347 8.34863L10.3394 9.68378C10.3657 9.70718 10.3853 9.73671 10.3964 9.76953C10.4074 9.80236 10.4096 9.83738 10.4025 9.87123L10.0047 11.7998C9.969 11.9688 10.1548 12.0988 10.3108 12.0148L12.0879 11.0546C12.119 11.0378 12.154 11.0289 12.1897 11.0289C12.2254 11.0289 12.2604 11.0378 12.2915 11.0546L14.0686 12.0148C14.2234 12.0988 14.4104 11.9688 14.3759 11.7998L13.9781 9.87123C13.971 9.83738 13.9732 9.80236 13.9842 9.76953C13.9953 9.73671 14.0149 9.70718 14.0412 9.68378L15.5371 8.34863C15.5663 8.32245 15.5871 8.28875 15.597 8.25152C15.607 8.21429 15.6057 8.17509 15.5933 8.13855C15.5809 8.10202 15.5579 8.06967 15.527 8.04536C15.4962 8.02104 15.4588 8.00576 15.4192 8.00133L13.3968 7.76903C13.3615 7.76498 13.3279 7.75228 13.2992 7.73215C13.2704 7.71203 13.2474 7.68514 13.2325 7.65403L12.3785 5.86808C12.3617 5.83343 12.335 5.80412 12.3016 5.78358C12.2681 5.76305 12.2293 5.75214 12.1897 5.75214C12.1501 5.75214 12.1113 5.76305 12.0778 5.78358C12.0444 5.80412 12.0177 5.83343 12.0009 5.86808H12.0021ZM12.1843 17.2508C13.8882 17.2533 15.5515 16.7494 16.9485 15.8075V20.1258C16.9484 20.2313 16.9183 20.3348 16.8614 20.4249C16.8044 20.515 16.7229 20.5882 16.6257 20.6366C16.5286 20.6849 16.4195 20.7065 16.3105 20.699C16.2014 20.6914 16.0966 20.655 16.0076 20.5938L12.1843 18.4008L8.3611 20.5938C8.27205 20.655 8.16727 20.6914 8.05824 20.699C7.94921 20.7065 7.84013 20.6849 7.74295 20.6366C7.64578 20.5882 7.56426 20.515 7.50733 20.4249C7.45039 20.3348 7.42024 20.2313 7.42017 20.1258V15.8075C8.81714 16.7494 10.4805 17.2533 12.1843 17.2508Z" fill="#D9D9D9"/>
</svg>
