<svg width="34" height="34" viewBox="0 0 34 34" fill="none" xmlns="http://www.w3.org/2000/svg">
<path d="M17.0164 12.9694C16.0236 12.9694 15.0939 13.3546 14.39 14.0585C13.6894 14.7624 13.301 15.6921 13.301 16.6849C13.301 17.6776 13.6894 18.6073 14.39 19.3112C15.0939 20.0118 16.0236 20.4003 17.0164 20.4003C18.0092 20.4003 18.9389 20.0118 19.6428 19.3112C20.3434 18.6073 20.7318 17.6776 20.7318 16.6849C20.7318 15.6921 20.3434 14.7624 19.6428 14.0585C19.299 13.712 18.8897 13.4374 18.4389 13.2504C17.988 13.0634 17.5045 12.9679 17.0164 12.9694ZM30.706 20.7888L28.5346 18.9327C28.6375 18.3019 28.6906 17.6577 28.6906 17.0169C28.6906 16.3761 28.6375 15.7286 28.5346 15.1011L30.706 13.245C30.8701 13.1046 30.9875 12.9176 31.0427 12.7088C31.0978 12.5 31.0881 12.2794 31.0148 12.0763L30.985 11.9899C30.3873 10.3188 29.4919 8.76976 28.342 7.41787L28.2822 7.34815C28.1426 7.18396 27.9565 7.06594 27.7484 7.00963C27.5404 6.95332 27.3202 6.96137 27.1168 7.03272L24.4207 7.99229C23.4246 7.17549 22.3156 6.53135 21.1137 6.08311L20.5924 3.26416C20.553 3.0518 20.45 2.85643 20.297 2.70402C20.144 2.5516 19.9482 2.44934 19.7357 2.41084L19.6461 2.39424C17.9195 2.08213 16.1 2.08213 14.3734 2.39424L14.2838 2.41084C14.0713 2.44934 13.8755 2.5516 13.7225 2.70402C13.5695 2.85643 13.4665 3.0518 13.4271 3.26416L12.9025 6.09639C11.712 6.5482 10.6029 7.19078 9.61875 7.99893L6.90273 7.03272C6.69941 6.9608 6.47903 6.95247 6.27086 7.00881C6.06269 7.06515 5.8766 7.18351 5.7373 7.34815L5.67754 7.41787C4.52968 8.7712 3.63445 10.3199 3.03457 11.9899L3.00469 12.0763C2.85527 12.4913 2.97812 12.9562 3.31347 13.245L5.51152 15.121C5.40859 15.7452 5.35879 16.3827 5.35879 17.0136C5.35879 17.6511 5.40859 18.2886 5.51152 18.9062L3.32011 20.7821C3.15608 20.9226 3.03867 21.1096 2.98351 21.3184C2.92836 21.5271 2.93806 21.7478 3.01133 21.9509L3.04121 22.0372C3.64219 23.7073 4.52871 25.2513 5.68418 26.6093L5.74394 26.679C5.88358 26.8432 6.06968 26.9612 6.27772 27.0175C6.48577 27.0738 6.70599 27.0658 6.90937 26.9944L9.62539 26.0282C10.6148 26.8417 11.7172 27.4858 12.9092 27.9308L13.4338 30.763C13.4731 30.9754 13.5761 31.1707 13.7291 31.3231C13.8822 31.4756 14.0779 31.5778 14.2904 31.6163L14.3801 31.6329C16.1236 31.9467 17.9092 31.9467 19.6527 31.6329L19.7424 31.6163C19.9549 31.5778 20.1507 31.4756 20.3037 31.3231C20.4567 31.1707 20.5597 30.9754 20.599 30.763L21.1203 27.944C22.3223 27.4925 23.4312 26.8517 24.4273 26.0349L27.1234 26.9944C27.3267 27.0663 27.5471 27.0747 27.7553 27.0183C27.9635 26.962 28.1496 26.8436 28.2889 26.679L28.3486 26.6093C29.5041 25.2446 30.3906 23.7073 30.9916 22.0372L31.0215 21.9509C31.1643 21.5392 31.0414 21.0776 30.706 20.7888ZM17.0164 22.522C13.7924 22.522 11.1793 19.9089 11.1793 16.6849C11.1793 13.4608 13.7924 10.8478 17.0164 10.8478C20.2404 10.8478 22.8535 13.4608 22.8535 16.6849C22.8535 19.9089 20.2404 22.522 17.0164 22.522Z" fill="black"/>
</svg>
