<svg width="25" height="23" viewBox="0 0 25 23" fill="none" xmlns="http://www.w3.org/2000/svg">
<path d="M19.6534 9.20078C19.6534 11.0308 18.9004 12.7858 17.5603 14.0798C16.2201 15.3738 14.4024 16.1008 12.5071 16.1008C10.6118 16.1008 8.79411 15.3738 7.45393 14.0798C6.11375 12.7858 5.36084 11.0308 5.36084 9.20078C5.36084 7.37079 6.11375 5.61575 7.45393 4.32174C8.79411 3.02774 10.6118 2.30078 12.5071 2.30078C14.4024 2.30078 16.2201 3.02774 17.5603 4.32174C18.9004 5.61575 19.6534 7.37079 19.6534 9.20078ZM12.3249 5.86808L11.4709 7.65403C11.4559 7.68514 11.433 7.71203 11.4042 7.73215C11.3754 7.75228 11.3418 7.76498 11.3065 7.76903L9.28414 8.00133C9.24458 8.00576 9.20716 8.02104 9.17632 8.04536C9.14547 8.06967 9.12249 8.10202 9.11008 8.13855C9.09768 8.17509 9.09637 8.21429 9.10632 8.25152C9.11627 8.28875 9.13706 8.32245 9.16622 8.34863L10.6622 9.68378C10.6885 9.70718 10.7081 9.73671 10.7191 9.76953C10.7302 9.80236 10.7323 9.83738 10.7253 9.87123L10.3275 11.7998C10.2918 11.9688 10.4776 12.0988 10.6336 12.0148L12.4106 11.0546C12.4417 11.0378 12.4768 11.0289 12.5125 11.0289C12.5481 11.0289 12.5832 11.0378 12.6143 11.0546L14.3913 12.0148C14.5462 12.0988 14.7332 11.9688 14.6986 11.7998L14.3008 9.87123C14.2938 9.83738 14.2959 9.80236 14.307 9.76953C14.318 9.73671 14.3376 9.70718 14.3639 9.68378L15.8599 8.34863C15.889 8.32245 15.9098 8.28875 15.9198 8.25152C15.9297 8.21429 15.9284 8.17509 15.916 8.13855C15.9036 8.10202 15.8806 8.06967 15.8498 8.04536C15.8189 8.02104 15.7815 8.00576 15.742 8.00133L13.7196 7.76903C13.6843 7.76498 13.6507 7.75228 13.6219 7.73215C13.5932 7.71203 13.5702 7.68514 13.5552 7.65403L12.7012 5.86808C12.6844 5.83343 12.6578 5.80412 12.6243 5.78358C12.5909 5.76305 12.5521 5.75214 12.5125 5.75214C12.4728 5.75214 12.434 5.76305 12.4006 5.78358C12.3672 5.80412 12.3405 5.83343 12.3237 5.86808H12.3249ZM12.5071 17.2508C14.2109 17.2533 15.8743 16.7494 17.2713 15.8075V20.1258C17.2712 20.2313 17.241 20.3348 17.1841 20.4249C17.1272 20.515 17.0457 20.5882 16.9485 20.6366C16.8513 20.6849 16.7422 20.7065 16.6332 20.699C16.5242 20.6914 16.4194 20.655 16.3303 20.5938L12.5071 18.4008L8.68385 20.5938C8.5948 20.655 8.49002 20.6914 8.38099 20.699C8.27196 20.7065 8.16288 20.6849 8.06571 20.6366C7.96853 20.5882 7.88701 20.515 7.83008 20.4249C7.77315 20.3348 7.74299 20.2313 7.74293 20.1258V15.8075C9.13989 16.7494 10.8033 17.2533 12.5071 17.2508Z" fill="#207D92"/>
</svg>
