<svg width="21" height="20" viewBox="0 0 21 20" fill="none" xmlns="http://www.w3.org/2000/svg">
<path d="M15.3137 11.288C14.8398 11.2911 14.3725 11.3992 13.9453 11.6045C13.5181 11.8097 13.1417 12.1071 12.8431 12.4752L8.75215 10.5901C8.94449 10.0011 8.94449 9.36622 8.75215 8.77724L12.8431 6.89219C13.3257 7.47453 13.9985 7.86767 14.7427 8.00224C15.487 8.13681 16.2548 8.00415 16.9108 7.62769C17.5667 7.25122 18.0686 6.65514 18.3279 5.94465C18.5871 5.23415 18.587 4.45492 18.3277 3.74448C18.0683 3.03404 17.5663 2.43805 16.9103 2.0617C16.2542 1.68535 15.4864 1.55283 14.7421 1.68754C13.9979 1.82225 13.3252 2.21551 12.8427 2.79793C12.3603 3.38035 12.099 4.11449 12.1051 4.87077C12.1075 5.06187 12.1263 5.25241 12.1613 5.4403L7.92593 7.38953C7.47439 6.948 6.90259 6.64955 6.28217 6.53157C5.66176 6.41358 5.02032 6.4813 4.43822 6.72625C3.85613 6.9712 3.35926 7.38248 3.00988 7.90857C2.66049 8.43465 2.47412 9.05214 2.47412 9.68367C2.47412 10.3152 2.66049 10.9327 3.00988 11.4588C3.35926 11.9849 3.85613 12.3961 4.43822 12.6411C5.02032 12.886 5.66176 12.9538 6.28217 12.8358C6.90259 12.7178 7.47439 12.4193 7.92593 11.9778L12.1613 13.927C12.1263 14.1149 12.1075 14.3055 12.1051 14.4966C12.1051 15.1312 12.2933 15.7515 12.6459 16.2792C12.9984 16.8068 13.4996 17.2181 14.0859 17.4609C14.6722 17.7038 15.3173 17.7673 15.9397 17.6435C16.5621 17.5197 17.1338 17.2141 17.5826 16.7654C18.0313 16.3167 18.3369 15.7449 18.4607 15.1225C18.5845 14.5001 18.5209 13.855 18.2781 13.2687C18.0352 12.6824 17.624 12.1813 17.0963 11.8287C16.5687 11.4762 15.9483 11.288 15.3137 11.288ZM15.3137 3.26647C15.631 3.26647 15.9412 3.36056 16.205 3.53685C16.4689 3.71313 16.6745 3.96369 16.7959 4.25683C16.9173 4.54998 16.9491 4.87255 16.8872 5.18376C16.8253 5.49496 16.6725 5.78082 16.4481 6.00518C16.2238 6.22955 15.9379 6.38235 15.6267 6.44425C15.3155 6.50615 14.9929 6.47438 14.6998 6.35295C14.4066 6.23153 14.1561 6.0259 13.9798 5.76207C13.8035 5.49825 13.7094 5.18807 13.7094 4.87077C13.7094 4.44529 13.8785 4.03723 14.1793 3.73636C14.4802 3.4355 14.8882 3.26647 15.3137 3.26647V3.26647ZM5.68793 11.288C5.37063 11.288 5.06046 11.1939 4.79663 11.0176C4.53281 10.8413 4.32718 10.5908 4.20575 10.2976C4.08433 10.0045 4.05256 9.68189 4.11446 9.37069C4.17636 9.05949 4.32916 8.77363 4.55352 8.54926C4.77789 8.3249 5.06375 8.1721 5.37495 8.1102C5.68615 8.0483 6.00873 8.08007 6.30187 8.20149C6.59502 8.32292 6.84558 8.52855 7.02186 8.79237C7.19814 9.0562 7.29223 9.36637 7.29223 9.68367C7.29223 10.1092 7.12321 10.5172 6.82235 10.8181C6.52148 11.119 6.11342 11.288 5.68793 11.288ZM15.3137 16.1009C14.9964 16.1009 14.6863 16.0068 14.4224 15.8305C14.1586 15.6542 13.953 15.4037 13.8316 15.1105C13.7101 14.8174 13.6784 14.4948 13.7403 14.1836C13.8022 13.8724 13.955 13.5865 14.1793 13.3622C14.4037 13.1378 14.6895 12.985 15.0008 12.9231C15.312 12.8612 15.6345 12.893 15.9277 13.0144C16.2208 13.1358 16.4714 13.3414 16.6477 13.6053C16.8239 13.8691 16.918 14.1793 16.918 14.4966C16.918 14.9221 16.749 15.3301 16.4481 15.631C16.1473 15.9319 15.7392 16.1009 15.3137 16.1009Z" fill="black"/>
</svg>
