<svg width="34" height="35" viewBox="0 0 34 35" fill="none" xmlns="http://www.w3.org/2000/svg">
<path d="M16.9999 2.76758C16.3199 2.76758 16.0933 3.22091 15.6399 3.67424L2.49327 25.2076C2.2666 25.4342 2.2666 25.8876 2.2666 26.1142C2.2666 27.2476 3.17327 27.7009 3.85327 27.7009H30.1466C31.0533 27.7009 31.7333 27.2476 31.7333 26.1142C31.7333 25.6609 31.7333 25.6609 31.5066 25.2076L18.5866 3.67424C18.1333 3.22091 17.6799 2.76758 16.9999 2.76758ZM16.9999 6.16758L24.4799 18.6342H22.6666L19.2666 15.2342L16.9999 18.6342L14.7333 15.2342L11.3333 18.6342H9.29327L16.9999 6.16758Z" fill="black"/>
</svg>
