<svg width="24" height="27" viewBox="0 0 24 27" fill="none" xmlns="http://www.w3.org/2000/svg">
<g clip-path="url(#clip0_238_2647)">
<path d="M3.47347 8.5676C4.20985 8.5676 4.8068 7.9209 4.8068 7.12316C4.8068 6.32541 4.20985 5.67871 3.47347 5.67871C2.73709 5.67871 2.14014 6.32541 2.14014 7.12316C2.14014 7.9209 2.73709 8.5676 3.47347 8.5676Z" fill="black"/>
<path d="M3.47347 14.3449C4.20985 14.3449 4.8068 13.6982 4.8068 12.9005C4.8068 12.1028 4.20985 11.4561 3.47347 11.4561C2.73709 11.4561 2.14014 12.1028 2.14014 12.9005C2.14014 13.6982 2.73709 14.3449 3.47347 14.3449Z" fill="black"/>
<path d="M3.47347 20.1233C4.20985 20.1233 4.8068 19.4766 4.8068 18.6788C4.8068 17.8811 4.20985 17.2344 3.47347 17.2344C2.73709 17.2344 2.14014 17.8811 2.14014 18.6788C2.14014 19.4766 2.73709 20.1233 3.47347 20.1233Z" fill="black"/>
<path d="M21.6132 6.99957C21.6132 6.80802 21.5429 6.62432 21.4179 6.48888C21.2929 6.35343 21.1233 6.27734 20.9465 6.27734H6.6665V7.72179H20.9465C21.1233 7.72179 21.2929 7.6457 21.4179 7.51025C21.5429 7.37481 21.6132 7.19111 21.6132 6.99957Z" fill="black"/>
<path d="M20.9465 12.0557H6.6665V13.5001H20.9465C21.1233 13.5001 21.2929 13.424 21.4179 13.2886C21.5429 13.1531 21.6132 12.9694 21.6132 12.7779C21.6132 12.5863 21.5429 12.4026 21.4179 12.2672C21.2929 12.1318 21.1233 12.0557 20.9465 12.0557Z" fill="black"/>
<path d="M20.9465 17.833H6.6665V19.2775H20.9465C21.1233 19.2775 21.2929 19.2014 21.4179 19.0659C21.5429 18.9305 21.6132 18.7468 21.6132 18.5552C21.6132 18.3637 21.5429 18.18 21.4179 18.0445C21.2929 17.9091 21.1233 17.833 20.9465 17.833Z" fill="black"/>
</g>
<defs>
<clipPath id="clip0_238_2647">
<rect width="24" height="26" fill="white" transform="translate(0 0.5)"/>
</clipPath>
</defs>
</svg>
