<svg width="34" height="35" viewBox="0 0 34 35" fill="none" xmlns="http://www.w3.org/2000/svg">
<path d="M30.9049 7.07499C30.7776 6.9296 30.6216 6.81205 30.4468 6.72969C30.272 6.64734 30.082 6.60195 29.8888 6.59638C26.8877 6.51791 23.0901 3.30884 20.5794 2.04953C19.0285 1.27407 18.0045 0.762761 17.2356 0.628068C17.0795 0.605318 16.9208 0.605759 16.7648 0.629376C15.9959 0.764068 14.972 1.27538 13.4224 2.05084C10.9116 3.30884 7.11407 6.51791 4.11291 6.59638C3.9196 6.60224 3.72954 6.64775 3.55454 6.73008C3.37953 6.81241 3.2233 6.9298 3.09553 7.07499C2.83068 7.37463 2.69404 7.76625 2.71499 8.16561C3.35968 21.2726 8.06083 29.3842 16.3098 34.0985C16.5242 34.2201 16.7622 34.2828 16.9989 34.2828C17.2356 34.2828 17.4736 34.2201 17.6894 34.0985C25.9383 29.3842 30.6381 21.2726 31.2841 8.16561C31.3063 7.76631 31.17 7.3744 30.9049 7.07499ZM24.3455 12.2299L17.3847 22.5018C17.1349 22.8706 16.7426 23.1151 16.3542 23.1151C15.9645 23.1151 15.5317 22.902 15.2584 22.6287L10.3519 17.7209C10.1917 17.5601 10.1018 17.3424 10.1018 17.1155C10.1018 16.8885 10.1917 16.6708 10.3519 16.51L11.5641 15.2951C11.7253 15.1356 11.9428 15.0461 12.1696 15.0461C12.3964 15.0461 12.6139 15.1356 12.7751 15.2951L15.9658 18.4859L21.5091 10.3037C21.6374 10.1164 21.8345 9.98756 22.0575 9.94517C22.2804 9.90279 22.5111 9.95034 22.6991 10.0775L24.118 11.0399C24.3054 11.168 24.4346 11.365 24.4772 11.588C24.5199 11.811 24.4725 12.0417 24.3455 12.2299Z" fill="black"/>
</svg>
